<svg xmlns="http://www.w3.org/2000/svg" width="800" height="600" viewBox="0 0 800 600" role="img" aria-label="Puppy Culture">
  <defs>
    <linearGradient id="g" x1="0" y1="0" x2="0" y2="1">
      <stop offset="0" stop-color="#F5EFE6"/>
      <stop offset="1" stop-color="#E4DACA"/>
    </linearGradient>
  </defs>
  <rect width="800" height="600" fill="url(#g)"/>
  <g transform="translate(274 150) scale(2.52)" fill="#B7A892">
    <path d="M50 18c-10 0-13 6-20 8-6 2-12 1-12 9 0 6 4 9 9 11 1 9 10 17 23 17s22-8 23-17c5-2 9-5 9-11 0-8-6-7-12-9-7-2-10-8-20-8z"/>
  </g>
  <circle cx="400" cy="324" r="204.00000000000003" fill="none" stroke="#8A9A85" stroke-opacity="0.35" stroke-width="2"/>
  <text x="400" y="564" text-anchor="middle" font-family="Inter, system-ui, sans-serif" font-size="18" letter-spacing="1.5" fill="#3A352E" fill-opacity="0.55">PUPPY CULTURE</text>
</svg>
