<svg xmlns="http://www.w3.org/2000/svg" width="64" height="64" viewBox="0 0 64 64" fill="#6E7E69">
  <ellipse cx="25" cy="18" rx="7" ry="9.6" transform="rotate(-10 25 18)"/>
  <ellipse cx="39" cy="18" rx="7" ry="9.6" transform="rotate(10 39 18)"/>
  <ellipse cx="12.5" cy="30.5" rx="6.6" ry="9" transform="rotate(-30 12.5 30.5)"/>
  <ellipse cx="51.5" cy="30.5" rx="6.6" ry="9" transform="rotate(30 51.5 30.5)"/>
  <path d="M32 29c-7 0-13 7-15.5 14C14 49.5 17 58 24 58c4 0 6-2.5 8-2.5s4 2.5 8 2.5c7 0 10-8.5 7.5-15C45 36 39 29 32 29z"/>
</svg>
