<svg xmlns="http://www.w3.org/2000/svg" width="64" height="64" viewBox="0 0 64 64" fill="none" stroke="#8A9A85" stroke-width="2.4" stroke-linecap="round" stroke-linejoin="round">
  <ellipse cx="14.5" cy="29" rx="5.6" ry="8.2" transform="rotate(-24 14.5 29)"/>
  <ellipse cx="26" cy="19.5" rx="6" ry="9" transform="rotate(-8 26 19.5)"/>
  <ellipse cx="38" cy="19.5" rx="6" ry="9" transform="rotate(8 38 19.5)"/>
  <ellipse cx="49.5" cy="29" rx="5.6" ry="8.2" transform="rotate(24 49.5 29)"/>
  <path d="M32 32c-7.6 0-14.2 5.7-15.4 13.1-1 6.3 3.5 11.6 9.8 11.6 2.1 0 3.5-.9 5.6-.9s3.5.9 5.6.9c6.3 0 10.8-5.3 9.8-11.6C46.2 37.7 39.6 32 32 32z"/>
  <text x="32" y="49.5" text-anchor="middle" font-family="Inter, system-ui, sans-serif" font-weight="700" font-size="12" letter-spacing="0.4" fill="#8A9A85" stroke="none">CCP</text>
</svg>
